<svg xmlns="http://www.w3.org/2000/svg" version="1.1" xmlns:xlink="http://www.w3.org/1999/xlink" xmlns:svgjs="http://svgjs.com/svgjs" width="1440" height="560" preserveAspectRatio="none" viewBox="0 0 1440 560"><g mask="url(&quot;#SvgjsMask1013&quot;)" fill="none"><path d="M125.66 109.1L190.62 146.6L190.62 221.6L125.66 259.1L60.71 221.6L60.71 146.6zM450.43 221.6L515.39 259.1L515.39 334.1L450.43 371.6L385.48 334.1L385.48 259.1zM775.2 334.1L840.16 371.6L840.16 446.6L775.2 484.1L710.25 446.6L710.25 371.6zM1164.92 559.1L1229.88 596.6L1229.88 671.6L1164.92 709.1L1099.97 671.6L1099.97 596.6zM1294.83 109.1L1359.78 146.6L1359.78 221.6L1294.83 259.1L1229.88 221.6L1229.88 146.6zM1229.88 446.6L1294.83 484.1L1294.83 559.1L1229.88 596.6L1164.92 559.1L1164.92 484.1zM1359.79 -3.4L1424.74 34.1L1424.74 109.1L1359.79 146.6L1294.83 109.1L1294.83 34.1z" stroke="rgba(240, 186, 14, 1)" stroke-width="2"></path><path d="M118.16 109.1 a7.5 7.5 0 1 0 15 0 a7.5 7.5 0 1 0 -15 0zM183.12 146.6 a7.5 7.5 0 1 0 15 0 a7.5 7.5 0 1 0 -15 0zM183.12 221.6 a7.5 7.5 0 1 0 15 0 a7.5 7.5 0 1 0 -15 0zM118.16 259.1 a7.5 7.5 0 1 0 15 0 a7.5 7.5 0 1 0 -15 0zM53.21 221.6 a7.5 7.5 0 1 0 15 0 a7.5 7.5 0 1 0 -15 0zM53.21 146.6 a7.5 7.5 0 1 0 15 0 a7.5 7.5 0 1 0 -15 0zM442.93 221.6 a7.5 7.5 0 1 0 15 0 a7.5 7.5 0 1 0 -15 0zM507.89 259.1 a7.5 7.5 0 1 0 15 0 a7.5 7.5 0 1 0 -15 0zM507.89 334.1 a7.5 7.5 0 1 0 15 0 a7.5 7.5 0 1 0 -15 0zM442.93 371.6 a7.5 7.5 0 1 0 15 0 a7.5 7.5 0 1 0 -15 0zM377.98 334.1 a7.5 7.5 0 1 0 15 0 a7.5 7.5 0 1 0 -15 0zM377.98 259.1 a7.5 7.5 0 1 0 15 0 a7.5 7.5 0 1 0 -15 0zM767.7 334.1 a7.5 7.5 0 1 0 15 0 a7.5 7.5 0 1 0 -15 0zM832.66 371.6 a7.5 7.5 0 1 0 15 0 a7.5 7.5 0 1 0 -15 0zM832.66 446.6 a7.5 7.5 0 1 0 15 0 a7.5 7.5 0 1 0 -15 0zM767.7 484.1 a7.5 7.5 0 1 0 15 0 a7.5 7.5 0 1 0 -15 0zM702.75 446.6 a7.5 7.5 0 1 0 15 0 a7.5 7.5 0 1 0 -15 0zM702.75 371.6 a7.5 7.5 0 1 0 15 0 a7.5 7.5 0 1 0 -15 0zM1157.42 559.1 a7.5 7.5 0 1 0 15 0 a7.5 7.5 0 1 0 -15 0zM1222.38 596.6 a7.5 7.5 0 1 0 15 0 a7.5 7.5 0 1 0 -15 0zM1222.38 671.6 a7.5 7.5 0 1 0 15 0 a7.5 7.5 0 1 0 -15 0zM1157.42 709.1 a7.5 7.5 0 1 0 15 0 a7.5 7.5 0 1 0 -15 0zM1092.47 671.6 a7.5 7.5 0 1 0 15 0 a7.5 7.5 0 1 0 -15 0zM1092.47 596.6 a7.5 7.5 0 1 0 15 0 a7.5 7.5 0 1 0 -15 0zM1287.33 109.1 a7.5 7.5 0 1 0 15 0 a7.5 7.5 0 1 0 -15 0zM1352.28 146.6 a7.5 7.5 0 1 0 15 0 a7.5 7.5 0 1 0 -15 0zM1352.28 221.6 a7.5 7.5 0 1 0 15 0 a7.5 7.5 0 1 0 -15 0zM1287.33 259.1 a7.5 7.5 0 1 0 15 0 a7.5 7.5 0 1 0 -15 0zM1222.38 221.6 a7.5 7.5 0 1 0 15 0 a7.5 7.5 0 1 0 -15 0zM1222.38 146.6 a7.5 7.5 0 1 0 15 0 a7.5 7.5 0 1 0 -15 0zM1222.38 446.6 a7.5 7.5 0 1 0 15 0 a7.5 7.5 0 1 0 -15 0zM1287.33 484.1 a7.5 7.5 0 1 0 15 0 a7.5 7.5 0 1 0 -15 0zM1287.33 559.1 a7.5 7.5 0 1 0 15 0 a7.5 7.5 0 1 0 -15 0zM1157.42 484.1 a7.5 7.5 0 1 0 15 0 a7.5 7.5 0 1 0 -15 0zM1352.29 -3.4 a7.5 7.5 0 1 0 15 0 a7.5 7.5 0 1 0 -15 0zM1417.24 34.1 a7.5 7.5 0 1 0 15 0 a7.5 7.5 0 1 0 -15 0zM1417.24 109.1 a7.5 7.5 0 1 0 15 0 a7.5 7.5 0 1 0 -15 0zM1352.29 146.6 a7.5 7.5 0 1 0 15 0 a7.5 7.5 0 1 0 -15 0zM1287.33 34.1 a7.5 7.5 0 1 0 15 0 a7.5 7.5 0 1 0 -15 0z" fill="rgba(240, 186, 14, 1)"></path><path d="M46.89 353.13L90.2 378.13L90.2 428.13L46.89 453.13L3.59 428.13L3.59 378.13zM90.2 428.13L133.5 453.13L133.5 503.13L90.2 528.13L46.89 503.13L46.89 453.13zM176.8 278.13L220.1 303.13L220.1 353.13L176.8 378.13L133.5 353.13L133.5 303.13zM220.1 353.13L263.4 378.13L263.4 428.13L220.1 453.13L176.8 428.13L176.8 378.13zM306.71 53.13L350.01 78.13L350.01 128.13L306.71 153.13L263.4 128.13L263.4 78.13zM436.62 428.13L479.92 453.13L479.92 503.13L436.62 528.13L393.31 503.13L393.31 453.13zM653.13 53.13L696.43 78.13L696.43 128.13L653.13 153.13L609.83 128.13L609.83 78.13zM609.83 278.13L653.13 303.13L653.13 353.13L609.83 378.13L566.52 353.13L566.52 303.13zM653.13 353.13L696.43 378.13L696.43 428.13L653.13 453.13L609.83 428.13L609.83 378.13zM653.13 503.13L696.43 528.13L696.43 578.13L653.13 603.13L609.83 578.13L609.83 528.13zM696.43 128.13L739.73 153.13L739.73 203.13L696.43 228.13L653.13 203.13L653.13 153.13zM739.73 353.13L783.04 378.13L783.04 428.13L739.73 453.13L696.43 428.13L696.43 378.13zM826.34 53.13L869.64 78.13L869.64 128.13L826.34 153.13L783.04 128.13L783.04 78.13zM783.04 128.13L826.34 153.13L826.34 203.13L783.04 228.13L739.73 203.13L739.73 153.13zM783.04 278.13L826.34 303.13L826.34 353.13L783.04 378.13L739.73 353.13L739.73 303.13zM869.64 128.13L912.94 153.13L912.94 203.13L869.64 228.13L826.34 203.13L826.34 153.13zM869.64 278.13L912.94 303.13L912.94 353.13L869.64 378.13L826.34 353.13L826.34 303.13zM999.55 503.13L1042.85 528.13L1042.85 578.13L999.55 603.13L956.25 578.13L956.25 528.13zM1042.85 128.13L1086.15 153.13L1086.15 203.13L1042.85 228.13L999.55 203.13L999.55 153.13zM1086.15 353.13L1129.45 378.13L1129.45 428.13L1086.15 453.13L1042.85 428.13L1042.85 378.13zM1129.45 -21.87L1172.76 3.13L1172.76 53.13L1129.45 78.13L1086.15 53.13L1086.15 3.13zM1129.45 428.13L1172.76 453.13L1172.76 503.13L1129.45 528.13L1086.15 503.13L1086.15 453.13zM1216.06 128.13L1259.36 153.13L1259.36 203.13L1216.06 228.13L1172.76 203.13L1172.76 153.13zM1259.36 203.13L1302.66 228.13L1302.66 278.13L1259.36 303.13L1216.06 278.13L1216.06 228.13zM1259.36 503.13L1302.66 528.13L1302.66 578.13L1259.36 603.13L1216.06 578.13L1216.06 528.13zM1302.66 -21.87L1345.97 3.13L1345.97 53.13L1302.66 78.13L1259.36 53.13L1259.36 3.13zM1345.97 53.13L1389.27 78.13L1389.27 128.13L1345.97 153.13L1302.66 128.13L1302.66 78.13zM1345.97 503.13L1389.27 528.13L1389.27 578.13L1345.97 603.13L1302.66 578.13L1302.66 528.13zM1432.57 53.13L1475.88 78.13L1475.88 128.13L1432.57 153.13L1389.27 128.13L1389.27 78.13z" stroke="rgba(6, 156, 33, 0.93)" stroke-width="2"></path></g><defs><mask id="SvgjsMask1013"><rect width="1440" height="560" fill="#ffffff"></rect></mask></defs></svg>