<svg width="0" height="0" class="hidden">
  <symbol xmlns="http://www.w3.org/2000/svg" viewBox="0 0 512 512" id="crypto">
    <title>Planet</title>
    <path d="M96.85 286.62a8 8 0 00-12.53 8.25C102.07 373.28 172.3 432 256 432a175.31 175.31 0 0052.41-8 8 8 0 00.79-15 1120 1120 0 01-109.48-55.61 1126.24 1126.24 0 01-102.87-66.77zM492.72 339.51c-4.19-5.58-9.11-11.44-14.7-17.53a15.83 15.83 0 00-26.56 5.13c0 .16-.11.31-.17.47a15.75 15.75 0 003.15 16.06c22.74 25 26.42 38.51 25.48 41.36-2 2.23-17.05 6.89-58.15-3.53q-8.83-2.24-19.32-5.46-6.76-2.08-13.79-4.49a176.76 176.76 0 0019.54-27.25c.17-.29.35-.58.52-.88A175.39 175.39 0 00432 256a178.87 178.87 0 00-1-19c-9.57-88.17-84.4-157-175-157a175.37 175.37 0 00-106.4 35.89 177.4 177.4 0 00-45.83 51.84c-.16.29-.34.58-.51.87a175.48 175.48 0 00-13.83 30.52q-5.59-4.87-10.79-9.67c-5.39-5-10.17-9.63-14.42-14-29.57-30.26-33.09-45.61-32.16-48.45 2-2.23 15.54-5.87 48.62 1.31A15.82 15.82 0 0096.22 123l.36-.44a15.74 15.74 0 00-8.67-25.43A237.38 237.38 0 0064.13 93c-30.72-3.53-50.83 2.52-59.78 18-3.24 5.58-6.35 15.09-2.72 28.6C7 159.66 26.14 184 53.23 209.5c8.63 8.13 18.06 16.37 28.12 24.64 7.32 6 15 12.06 22.9 18.08q7.91 6 16.15 12T137.1 276c25.41 17.61 52.26 34.52 78.59 49.69q14.34 8.26 28.64 16t28.37 14.81c21.9 11 43.35 20.92 63.86 29.43q13.19 5.48 25.81 10.16c11.89 4.42 23.37 8.31 34.31 11.59l1.1.33c25.73 7.66 47.42 11.69 64.48 12H464c21.64 0 36.3-6.38 43.58-19 9.09-15.62 4.08-36.32-14.86-61.5z"></path>
  </symbol>
  <symbol xmlns="http://www.w3.org/2000/svg" viewBox="0 0 512 512" id="register">
    <title>Person Add</title>
    <path d="M288 256c52.79 0 99.43-49.71 104-110.82 2.27-30.7-7.36-59.33-27.12-80.6C345.33 43.57 318 32 288 32c-30.24 0-57.59 11.5-77 32.38-19.63 21.11-29.2 49.8-27 80.78C188.49 206.28 235.12 256 288 256zM495.38 439.76c-8.44-46.82-34.79-86.15-76.19-113.75C382.42 301.5 335.83 288 288 288s-94.42 13.5-131.19 38c-41.4 27.6-67.75 66.93-76.19 113.75-1.93 10.73.69 21.34 7.19 29.11A30.94 30.94 0 00112 480h352a30.94 30.94 0 0024.21-11.13c6.48-7.77 9.1-18.38 7.17-29.11zM104 288v-40h40a16 16 0 000-32h-40v-40a16 16 0 00-32 0v40H32a16 16 0 000 32h40v40a16 16 0 0032 0z"></path>
  </symbol>
  <symbol xmlns="http://www.w3.org/2000/svg" viewBox="0 0 512 512" id="logo">
    <title>Infinite</title>
    <path d="M256 256s-48-96-126-96c-54.12 0-98 43-98 96s43.88 96 98 96c30 0 56.45-13.18 78-32M256 256s48 96 126 96c54.12 0 98-43 98-96s-43.88-96-98-96c-29.37 0-56.66 13.75-78 32" fill="none" stroke="currentColor" stroke-linecap="round" stroke-miterlimit="10" stroke-width="48"></path>
  </symbol>
  <symbol xmlns="http://www.w3.org/2000/svg" viewBox="0 0 512 512" id="profile">
    <title>Person</title>
    <path d="M332.64 64.58C313.18 43.57 286 32 256 32c-30.16 0-57.43 11.5-76.8 32.38-19.58 21.11-29.12 49.8-26.88 80.78C156.76 206.28 203.27 256 256 256s99.16-49.71 103.67-110.82c2.27-30.7-7.33-59.33-27.03-80.6zM432 480H80a31 31 0 01-24.2-11.13c-6.5-7.77-9.12-18.38-7.18-29.11C57.06 392.94 83.4 353.61 124.8 326c36.78-24.51 83.37-38 131.2-38s94.42 13.5 131.2 38c41.4 27.6 67.74 66.93 76.18 113.75 1.94 10.73-.68 21.34-7.18 29.11A31 31 0 01432 480z"></path>
  </symbol>
  <symbol xmlns="http://www.w3.org/2000/svg" viewBox="0 0 512 512" id="stock">
    <title>Color Filter</title>
    <path d="M253.72 202.53a4 4 0 004.56 0 151.88 151.88 0 01128.44-20.41 4 4 0 005.15-4C388.8 105.86 329 48 256 48s-132.8 57.86-135.87 130.15a4 4 0 005.15 4 151.88 151.88 0 01128.44 20.41zM405.31 212.56a152.53 152.53 0 01-83.08 108.23 4 4 0 00-2.28 3.69c0 1.17.05 2.34.05 3.52a151.58 151.58 0 01-47.15 109.94 4 4 0 00.64 6.31A135.24 135.24 0 00344 464c72.07 0 134.1-60.28 136-132.34a136.07 136.07 0 00-68.76-121.87 4 4 0 00-5.93 2.77z"></path>
    <path d="M390.57 203.67a4 4 0 00-2.69-4.4 135.84 135.84 0 00-114.4 12.49 4 4 0 00-.64 6.29 151.92 151.92 0 0144.47 81.4 4 4 0 005.94 2.72 136.29 136.29 0 0067.32-98.5zM192 328c0-1.18 0-2.35.05-3.52a4 4 0 00-2.28-3.69 152.53 152.53 0 01-83.08-108.23 4 4 0 00-5.88-2.77 136.07 136.07 0 00-68.76 121.87C34 403.72 96 464 168.05 464a135.24 135.24 0 0070.46-19.75 4 4 0 00.64-6.31A151.58 151.58 0 01192 328z"></path>
    <path d="M168 192a135.34 135.34 0 00-43.88 7.27 4 4 0 00-2.69 4.4 136.29 136.29 0 0067.32 98.5 4 4 0 005.94-2.72 151.92 151.92 0 0144.47-81.4 4 4 0 00-.64-6.29A135.18 135.18 0 00168 192zM256 336a151.44 151.44 0 01-42.72-6.12 4 4 0 00-5.15 4 135.69 135.69 0 0045.18 95.4 4 4 0 005.38 0 135.69 135.69 0 0045.18-95.4 4 4 0 00-5.15-4A151.44 151.44 0 01256 336zM302.57 308.33a135.94 135.94 0 00-43.87-81.58 4.06 4.06 0 00-5.4 0 135.94 135.94 0 00-43.87 81.58 4 4 0 002.69 4.4 136.06 136.06 0 0087.76 0 4 4 0 002.69-4.4z"></path>
  </symbol>
  <symbol xmlns="http://www.w3.org/2000/svg" viewBox="0 0 512 512" id="chart">
    <title>Pie Chart</title>
    <path d="M66.1 357a16 16 0 01-14.61-9.46A224 224 0 01256 32a16 16 0 0116 16v208a16 16 0 01-9.47 14.61l-189.9 84.95A15.93 15.93 0 0166.1 357z"></path>
    <path d="M313.59 68.18A8 8 0 00304 76v180a48.07 48.07 0 01-28.4 43.82L103.13 377a8 8 0 00-3.35 11.81 208.42 208.42 0 0048.46 50.41A206.32 206.32 0 00272 480c114.69 0 208-93.31 208-208 0-100.45-71.58-184.5-166.41-203.82z"></path>
  </symbol>
  <symbol xmlns="http://www.w3.org/2000/svg" viewBox="0 0 512 512" id="fund">
    <title>Wallet</title>
    <path d="M95.5 104h320a87.73 87.73 0 0111.18.71 66 66 0 00-77.51-55.56L86 94.08h-.3a66 66 0 00-41.07 26.13A87.57 87.57 0 0195.5 104zM415.5 128h-320a64.07 64.07 0 00-64 64v192a64.07 64.07 0 0064 64h320a64.07 64.07 0 0064-64V192a64.07 64.07 0 00-64-64zM368 320a32 32 0 1132-32 32 32 0 01-32 32z"></path>
    <path d="M32 259.5V160c0-21.67 12-58 53.65-65.87C121 87.5 156 87.5 156 87.5s23 16 4 16-18.5 24.5 0 24.5 0 23.5 0 23.5L85.5 236z"></path>
  </symbol>
  <symbol xmlns="http://www.w3.org/2000/svg" viewBox="0 0 512 512" id="login">
    <title>Log In</title>
    <path d="M392 80H232a56.06 56.06 0 00-56 56v104h153.37l-52.68-52.69a16 16 0 0122.62-22.62l80 80a16 16 0 010 22.62l-80 80a16 16 0 01-22.62-22.62L329.37 272H176v104c0 32.05 33.79 56 64 56h152a56.06 56.06 0 0056-56V136a56.06 56.06 0 00-56-56zM80 240a16 16 0 000 32h96v-32z"></path>
  </symbol>
  <symbol xmlns="http://www.w3.org/2000/svg" viewBox="0 0 512 512" id="logout">
    <title>Log Out</title>
    <path d="M160 256a16 16 0 0116-16h144V136c0-32-33.79-56-64-56H104a56.06 56.06 0 00-56 56v240a56.06 56.06 0 0056 56h160a56.06 56.06 0 0056-56V272H176a16 16 0 01-16-16zM459.31 244.69l-80-80a16 16 0 00-22.62 22.62L409.37 240H320v32h89.37l-52.68 52.69a16 16 0 1022.62 22.62l80-80a16 16 0 000-22.62z"></path>
  </symbol>
  <symbol xmlns="http://www.w3.org/2000/svg" viewBox="0 0 512 512" id="menu">
    <title>Layers</title>
    <path d="M256 256c-13.47 0-26.94-2.39-37.44-7.17l-148-67.49C63.79 178.26 48 169.25 48 152.24s15.79-26 22.58-29.12l149.28-68.07c20.57-9.4 51.61-9.4 72.19 0l149.37 68.07c6.79 3.09 22.58 12.1 22.58 29.12s-15.79 26-22.58 29.11l-148 67.48C282.94 253.61 269.47 256 256 256zm176.76-100.86z"></path>
    <path d="M441.36 226.81L426.27 220l-38.77 17.74-94 43c-10.5 4.8-24 7.19-37.44 7.19s-26.93-2.39-37.42-7.19l-94.07-43L85.79 220l-15.22 6.84C63.79 229.93 48 239 48 256s15.79 26.08 22.56 29.17l148 67.63C229 357.6 242.49 360 256 360s26.94-2.4 37.44-7.19l147.87-67.61c6.81-3.09 22.69-12.11 22.69-29.2s-15.77-26.07-22.64-29.19z"></path>
    <path d="M441.36 330.8l-15.09-6.8-38.77 17.73-94 42.95c-10.5 4.78-24 7.18-37.44 7.18s-26.93-2.39-37.42-7.18l-94.07-43L85.79 324l-15.22 6.84C63.79 333.93 48 343 48 360s15.79 26.07 22.56 29.15l148 67.59C229 461.52 242.54 464 256 464s26.88-2.48 37.38-7.27l147.92-67.57c6.82-3.08 22.7-12.1 22.7-29.16s-15.77-26.07-22.64-29.2z"></path>
  </symbol>
  <symbol xmlns="http://www.w3.org/2000/svg" viewBox="0 0 512 512" id="portfolio">
    <title>Bar Chart</title>
    <path d="M480 496H48a32 32 0 01-32-32V32a16 16 0 0132 0v432h432a16 16 0 010 32z"></path>
    <path d="M156 432h-40a36 36 0 01-36-36V244a36 36 0 0136-36h40a36 36 0 0136 36v152a36 36 0 01-36 36zM300 432h-40a36 36 0 01-36-36V196a36 36 0 0136-36h40a36 36 0 0136 36v200a36 36 0 01-36 36zM443.64 432h-40a36 36 0 01-36-36V132a36 36 0 0136-36h40a36 36 0 0136 36v264a36 36 0 01-36 36z"></path>
  </symbol>
  <symbol xmlns="http://www.w3.org/2000/svg" viewBox="0 0 512 512" id="note">
    <title>Create</title>
    <path d="M459.94 53.25a16.06 16.06 0 00-23.22-.56L424.35 65a8 8 0 000 11.31l11.34 11.32a8 8 0 0011.34 0l12.06-12c6.1-6.09 6.67-16.01.85-22.38zM399.34 90L218.82 270.2a9 9 0 00-2.31 3.93L208.16 299a3.91 3.91 0 004.86 4.86l24.85-8.35a9 9 0 003.93-2.31L422 112.66a9 9 0 000-12.66l-9.95-10a9 9 0 00-12.71 0z"></path>
    <path d="M386.34 193.66L264.45 315.79A41.08 41.08 0 01247.58 326l-25.9 8.67a35.92 35.92 0 01-44.33-44.33l8.67-25.9a41.08 41.08 0 0110.19-16.87l122.13-121.91a8 8 0 00-5.65-13.66H104a56 56 0 00-56 56v240a56 56 0 0056 56h240a56 56 0 0056-56V199.31a8 8 0 00-13.66-5.65z"></path>
  </symbol>
  <symbol xmlns="http://www.w3.org/2000/svg" viewBox="0 0 512 512" id="watchlist">
    <title>Stats Chart</title>
    <path d="M104 496H72a24 24 0 01-24-24V328a24 24 0 0124-24h32a24 24 0 0124 24v144a24 24 0 01-24 24zM328 496h-32a24 24 0 01-24-24V232a24 24 0 0124-24h32a24 24 0 0124 24v240a24 24 0 01-24 24zM440 496h-32a24 24 0 01-24-24V120a24 24 0 0124-24h32a24 24 0 0124 24v352a24 24 0 01-24 24zM216 496h-32a24 24 0 01-24-24V40a24 24 0 0124-24h32a24 24 0 0124 24v432a24 24 0 01-24 24z"></path>
  </symbol>
  <symbol xmlns="http://www.w3.org/2000/svg" viewBox="0 0 512 512" id="screen">
    <title>Tv</title>
    <path d="M447.86 384H64.14A48.2 48.2 0 0116 335.86V128.14A48.2 48.2 0 0164.14 80h383.72A48.2 48.2 0 01496 128.14v207.72A48.2 48.2 0 01447.86 384z"></path>
    <path stroke="currentColor" stroke-linecap="round" stroke-miterlimit="10" stroke-width="32" d="M128 416h256"></path>
  </symbol>
  <symbol xmlns="http://www.w3.org/2000/svg" viewBox="0 0 512 512" id="trade">
    <title>Shapes</title>
    <path d="M336 336H32a16 16 0 01-14-23.81l152-272a16 16 0 0127.94 0l152 272A16 16 0 01336 336z"></path>
    <path d="M336 160a161.07 161.07 0 00-32.57 3.32l74.47 133.27A48 48 0 01336 368H183.33A160 160 0 10336 160z"></path>
  </symbol>
    <symbol xmlns="http://www.w3.org/2000/svg" viewBox="0 0 512 512" id="price">
    <title>Card</title>
    <path d="M32 376a56 56 0 0056 56h336a56 56 0 0056-56V222H32zm66-76a30 30 0 0130-30h48a30 30 0 0130 30v20a30 30 0 01-30 30h-48a30 30 0 01-30-30zM424 80H88a56 56 0 00-56 56v26h448v-26a56 56 0 00-56-56z"></path>
  </symbol>
  <symbol xmlns="http://www.w3.org/2000/svg" viewBox="0 0 512 512" id="support">
    <title>Information Circle</title>
    <path d="M256 56C145.72 56 56 145.72 56 256s89.72 200 200 200 200-89.72 200-200S366.28 56 256 56zm0 82a26 26 0 11-26 26 26 26 0 0126-26zm48 226h-88a16 16 0 010-32h28v-88h-16a16 16 0 010-32h32a16 16 0 0116 16v104h28a16 16 0 010 32z"></path>
  </symbol>
  <symbol xmlns="http://www.w3.org/2000/svg" viewBox="0 0 512 512" id="tool">
    <title>Terminal</title>
    <path d="M432 32H80a64.07 64.07 0 00-64 64v320a64.07 64.07 0 0064 64h352a64.07 64.07 0 0064-64V96a64.07 64.07 0 00-64-64zM96 256a16 16 0 01-10-28.49L150.39 176 86 124.49a16 16 0 1120-25l80 64a16 16 0 010 25l-80 64A16 16 0 0196 256zm160 0h-64a16 16 0 010-32h64a16 16 0 010 32z"></path>
  </symbol>
</svg>