<svg width="0" height="0" class="hidden">
  <symbol xmlns="http://www.w3.org/2000/svg" viewBox="0 0 512 512" id="crypto">
    <path d="M96.85 286.62a8 8 0 00-12.53 8.25C102.07 373.28 172.3 432 256 432a175.31 175.31 0 0052.41-8 8 8 0 00.79-15 1120 1120 0 01-109.48-55.61 1126.24 1126.24 0 01-102.87-66.77zM492.72 339.51c-4.19-5.58-9.11-11.44-14.7-17.53a15.83 15.83 0 00-26.56 5.13c0 .16-.11.31-.17.47a15.75 15.75 0 003.15 16.06c22.74 25 26.42 38.51 25.48 41.36-2 2.23-17.05 6.89-58.15-3.53q-8.83-2.24-19.32-5.46-6.76-2.08-13.79-4.49a176.76 176.76 0 0019.54-27.25c.17-.29.35-.58.52-.88A175.39 175.39 0 00432 256a178.87 178.87 0 00-1-19c-9.57-88.17-84.4-157-175-157a175.37 175.37 0 00-106.4 35.89 177.4 177.4 0 00-45.83 51.84c-.16.29-.34.58-.51.87a175.48 175.48 0 00-13.83 30.52q-5.59-4.87-10.79-9.67c-5.39-5-10.17-9.63-14.42-14-29.57-30.26-33.09-45.61-32.16-48.45 2-2.23 15.54-5.87 48.62 1.31A15.82 15.82 0 0096.22 123l.36-.44a15.74 15.74 0 00-8.67-25.43A237.38 237.38 0 0064.13 93c-30.72-3.53-50.83 2.52-59.78 18-3.24 5.58-6.35 15.09-2.72 28.6C7 159.66 26.14 184 53.23 209.5c8.63 8.13 18.06 16.37 28.12 24.64 7.32 6 15 12.06 22.9 18.08q7.91 6 16.15 12T137.1 276c25.41 17.61 52.26 34.52 78.59 49.69q14.34 8.26 28.64 16t28.37 14.81c21.9 11 43.35 20.92 63.86 29.43q13.19 5.48 25.81 10.16c11.89 4.42 23.37 8.31 34.31 11.59l1.1.33c25.73 7.66 47.42 11.69 64.48 12H464c21.64 0 36.3-6.38 43.58-19 9.09-15.62 4.08-36.32-14.86-61.5z"></path>
  </symbol>
  <symbol xmlns="http://www.w3.org/2000/svg" viewBox="0 0 512 512" id="register">
    <path d="M288 256c52.79 0 99.43-49.71 104-110.82 2.27-30.7-7.36-59.33-27.12-80.6C345.33 43.57 318 32 288 32c-30.24 0-57.59 11.5-77 32.38-19.63 21.11-29.2 49.8-27 80.78C188.49 206.28 235.12 256 288 256zM495.38 439.76c-8.44-46.82-34.79-86.15-76.19-113.75C382.42 301.5 335.83 288 288 288s-94.42 13.5-131.19 38c-41.4 27.6-67.75 66.93-76.19 113.75-1.93 10.73.69 21.34 7.19 29.11A30.94 30.94 0 00112 480h352a30.94 30.94 0 0024.21-11.13c6.48-7.77 9.1-18.38 7.17-29.11zM104 288v-40h40a16 16 0 000-32h-40v-40a16 16 0 00-32 0v40H32a16 16 0 000 32h40v40a16 16 0 0032 0z"></path>
  </symbol>
  <symbol xmlns="http://www.w3.org/2000/svg" viewBox="0 0 512 512" id="logo">
    <path d="M256 256s-48-96-126-96c-54.12 0-98 43-98 96s43.88 96 98 96c30 0 56.45-13.18 78-32M256 256s48 96 126 96c54.12 0 98-43 98-96s-43.88-96-98-96c-29.37 0-56.66 13.75-78 32" fill="none" stroke="currentColor" stroke-linecap="round" stroke-miterlimit="10" stroke-width="48"></path>
  </symbol>
  <symbol xmlns="http://www.w3.org/2000/svg" viewBox="0 0 512 512" id="profile">
    <path d="M332.64 64.58C313.18 43.57 286 32 256 32c-30.16 0-57.43 11.5-76.8 32.38-19.58 21.11-29.12 49.8-26.88 80.78C156.76 206.28 203.27 256 256 256s99.16-49.71 103.67-110.82c2.27-30.7-7.33-59.33-27.03-80.6zM432 480H80a31 31 0 01-24.2-11.13c-6.5-7.77-9.12-18.38-7.18-29.11C57.06 392.94 83.4 353.61 124.8 326c36.78-24.51 83.37-38 131.2-38s94.42 13.5 131.2 38c41.4 27.6 67.74 66.93 76.18 113.75 1.94 10.73-.68 21.34-7.18 29.11A31 31 0 01432 480z"></path>
  </symbol>
  <symbol xmlns="http://www.w3.org/2000/svg" viewBox="0 0 512 512" id="stock">
    <path d="M253.72 202.53a4 4 0 004.56 0 151.88 151.88 0 01128.44-20.41 4 4 0 005.15-4C388.8 105.86 329 48 256 48s-132.8 57.86-135.87 130.15a4 4 0 005.15 4 151.88 151.88 0 01128.44 20.41zM405.31 212.56a152.53 152.53 0 01-83.08 108.23 4 4 0 00-2.28 3.69c0 1.17.05 2.34.05 3.52a151.58 151.58 0 01-47.15 109.94 4 4 0 00.64 6.31A135.24 135.24 0 00344 464c72.07 0 134.1-60.28 136-132.34a136.07 136.07 0 00-68.76-121.87 4 4 0 00-5.93 2.77z"></path>
    <path d="M390.57 203.67a4 4 0 00-2.69-4.4 135.84 135.84 0 00-114.4 12.49 4 4 0 00-.64 6.29 151.92 151.92 0 0144.47 81.4 4 4 0 005.94 2.72 136.29 136.29 0 0067.32-98.5zM192 328c0-1.18 0-2.35.05-3.52a4 4 0 00-2.28-3.69 152.53 152.53 0 01-83.08-108.23 4 4 0 00-5.88-2.77 136.07 136.07 0 00-68.76 121.87C34 403.72 96 464 168.05 464a135.24 135.24 0 0070.46-19.75 4 4 0 00.64-6.31A151.58 151.58 0 01192 328z"></path>
    <path d="M168 192a135.34 135.34 0 00-43.88 7.27 4 4 0 00-2.69 4.4 136.29 136.29 0 0067.32 98.5 4 4 0 005.94-2.72 151.92 151.92 0 0144.47-81.4 4 4 0 00-.64-6.29A135.18 135.18 0 00168 192zM256 336a151.44 151.44 0 01-42.72-6.12 4 4 0 00-5.15 4 135.69 135.69 0 0045.18 95.4 4 4 0 005.38 0 135.69 135.69 0 0045.18-95.4 4 4 0 00-5.15-4A151.44 151.44 0 01256 336zM302.57 308.33a135.94 135.94 0 00-43.87-81.58 4.06 4.06 0 00-5.4 0 135.94 135.94 0 00-43.87 81.58 4 4 0 002.69 4.4 136.06 136.06 0 0087.76 0 4 4 0 002.69-4.4z"></path>
  </symbol>
  <symbol xmlns="http://www.w3.org/2000/svg" viewBox="0 0 512 512" id="chart">
    <path d="M66.1 357a16 16 0 01-14.61-9.46A224 224 0 01256 32a16 16 0 0116 16v208a16 16 0 01-9.47 14.61l-189.9 84.95A15.93 15.93 0 0166.1 357z"></path>
    <path d="M313.59 68.18A8 8 0 00304 76v180a48.07 48.07 0 01-28.4 43.82L103.13 377a8 8 0 00-3.35 11.81 208.42 208.42 0 0048.46 50.41A206.32 206.32 0 00272 480c114.69 0 208-93.31 208-208 0-100.45-71.58-184.5-166.41-203.82z"></path>
  </symbol>
  <symbol xmlns="http://www.w3.org/2000/svg" viewBox="0 0 512 512" id="fund">
    <path d="M95.5 104h320a87.73 87.73 0 0111.18.71 66 66 0 00-77.51-55.56L86 94.08h-.3a66 66 0 00-41.07 26.13A87.57 87.57 0 0195.5 104zM415.5 128h-320a64.07 64.07 0 00-64 64v192a64.07 64.07 0 0064 64h320a64.07 64.07 0 0064-64V192a64.07 64.07 0 00-64-64zM368 320a32 32 0 1132-32 32 32 0 01-32 32z"></path>
    <path d="M32 259.5V160c0-21.67 12-58 53.65-65.87C121 87.5 156 87.5 156 87.5s23 16 4 16-18.5 24.5 0 24.5 0 23.5 0 23.5L85.5 236z"></path>
  </symbol>
  <symbol xmlns="http://www.w3.org/2000/svg" viewBox="0 0 512 512" id="login">
    <path d="M392 80H232a56.06 56.06 0 00-56 56v104h153.37l-52.68-52.69a16 16 0 0122.62-22.62l80 80a16 16 0 010 22.62l-80 80a16 16 0 01-22.62-22.62L329.37 272H176v104c0 32.05 33.79 56 64 56h152a56.06 56.06 0 0056-56V136a56.06 56.06 0 00-56-56zM80 240a16 16 0 000 32h96v-32z"></path>
  </symbol>
  <symbol xmlns="http://www.w3.org/2000/svg" viewBox="0 0 512 512" id="logout">
    <path d="M160 256a16 16 0 0116-16h144V136c0-32-33.79-56-64-56H104a56.06 56.06 0 00-56 56v240a56.06 56.06 0 0056 56h160a56.06 56.06 0 0056-56V272H176a16 16 0 01-16-16zM459.31 244.69l-80-80a16 16 0 00-22.62 22.62L409.37 240H320v32h89.37l-52.68 52.69a16 16 0 1022.62 22.62l80-80a16 16 0 000-22.62z"></path>
  </symbol>
  <symbol xmlns="http://www.w3.org/2000/svg" viewBox="0 0 512 512" id="menu">
    <path d="M256 256c-13.47 0-26.94-2.39-37.44-7.17l-148-67.49C63.79 178.26 48 169.25 48 152.24s15.79-26 22.58-29.12l149.28-68.07c20.57-9.4 51.61-9.4 72.19 0l149.37 68.07c6.79 3.09 22.58 12.1 22.58 29.12s-15.79 26-22.58 29.11l-148 67.48C282.94 253.61 269.47 256 256 256zm176.76-100.86z"></path>
    <path d="M441.36 226.81L426.27 220l-38.77 17.74-94 43c-10.5 4.8-24 7.19-37.44 7.19s-26.93-2.39-37.42-7.19l-94.07-43L85.79 220l-15.22 6.84C63.79 229.93 48 239 48 256s15.79 26.08 22.56 29.17l148 67.63C229 357.6 242.49 360 256 360s26.94-2.4 37.44-7.19l147.87-67.61c6.81-3.09 22.69-12.11 22.69-29.2s-15.77-26.07-22.64-29.19z"></path>
    <path d="M441.36 330.8l-15.09-6.8-38.77 17.73-94 42.95c-10.5 4.78-24 7.18-37.44 7.18s-26.93-2.39-37.42-7.18l-94.07-43L85.79 324l-15.22 6.84C63.79 333.93 48 343 48 360s15.79 26.07 22.56 29.15l148 67.59C229 461.52 242.54 464 256 464s26.88-2.48 37.38-7.27l147.92-67.57c6.82-3.08 22.7-12.1 22.7-29.16s-15.77-26.07-22.64-29.2z"></path>
  </symbol>
  <symbol xmlns="http://www.w3.org/2000/svg" viewBox="0 0 512 512" id="portfolio">
    <path d="M480 496H48a32 32 0 01-32-32V32a16 16 0 0132 0v432h432a16 16 0 010 32z"></path>
    <path d="M156 432h-40a36 36 0 01-36-36V244a36 36 0 0136-36h40a36 36 0 0136 36v152a36 36 0 01-36 36zM300 432h-40a36 36 0 01-36-36V196a36 36 0 0136-36h40a36 36 0 0136 36v200a36 36 0 01-36 36zM443.64 432h-40a36 36 0 01-36-36V132a36 36 0 0136-36h40a36 36 0 0136 36v264a36 36 0 01-36 36z"></path>
  </symbol>
  <symbol xmlns="http://www.w3.org/2000/svg" viewBox="0 0 512 512" id="note">
    <path d="M459.94 53.25a16.06 16.06 0 00-23.22-.56L424.35 65a8 8 0 000 11.31l11.34 11.32a8 8 0 0011.34 0l12.06-12c6.1-6.09 6.67-16.01.85-22.38zM399.34 90L218.82 270.2a9 9 0 00-2.31 3.93L208.16 299a3.91 3.91 0 004.86 4.86l24.85-8.35a9 9 0 003.93-2.31L422 112.66a9 9 0 000-12.66l-9.95-10a9 9 0 00-12.71 0z"></path>
    <path d="M386.34 193.66L264.45 315.79A41.08 41.08 0 01247.58 326l-25.9 8.67a35.92 35.92 0 01-44.33-44.33l8.67-25.9a41.08 41.08 0 0110.19-16.87l122.13-121.91a8 8 0 00-5.65-13.66H104a56 56 0 00-56 56v240a56 56 0 0056 56h240a56 56 0 0056-56V199.31a8 8 0 00-13.66-5.65z"></path>
  </symbol>
  <symbol xmlns="http://www.w3.org/2000/svg" viewBox="0 0 512 512" id="watchlist">
    <path d="M104 496H72a24 24 0 01-24-24V328a24 24 0 0124-24h32a24 24 0 0124 24v144a24 24 0 01-24 24zM328 496h-32a24 24 0 01-24-24V232a24 24 0 0124-24h32a24 24 0 0124 24v240a24 24 0 01-24 24zM440 496h-32a24 24 0 01-24-24V120a24 24 0 0124-24h32a24 24 0 0124 24v352a24 24 0 01-24 24zM216 496h-32a24 24 0 01-24-24V40a24 24 0 0124-24h32a24 24 0 0124 24v432a24 24 0 01-24 24z"></path>
  </symbol>
  <symbol xmlns="http://www.w3.org/2000/svg" viewBox="0 0 512 512" id="trade">
    <path d="M336 336H32a16 16 0 01-14-23.81l152-272a16 16 0 0127.94 0l152 272A16 16 0 01336 336z"></path>
    <path d="M336 160a161.07 161.07 0 00-32.57 3.32l74.47 133.27A48 48 0 01336 368H183.33A160 160 0 10336 160z"></path>
  </symbol>
    <symbol xmlns="http://www.w3.org/2000/svg" viewBox="0 0 512 512" id="price">
    <path d="M32 376a56 56 0 0056 56h336a56 56 0 0056-56V222H32zm66-76a30 30 0 0130-30h48a30 30 0 0130 30v20a30 30 0 01-30 30h-48a30 30 0 01-30-30zM424 80H88a56 56 0 00-56 56v26h448v-26a56 56 0 00-56-56z"></path>
  </symbol>
  <symbol xmlns="http://www.w3.org/2000/svg" viewBox="0 0 512 512" id="dividend">
    <path d="M487.83 319.44L295.63 36.88a48 48 0 00-79.26 0L24.17 319.44a47.1 47.1 0 0016.93 68.13l192.2 102.75a48.05 48.05 0 0045.4 0l192.2-102.75a47.1 47.1 0 0016.93-68.13zm-431.26 41a16.12 16.12 0 01-8-10.38 16.8 16.8 0 012.37-13.62L232.66 69.26c2.18-3.21 7.34-1.72 7.34 2.13v374c0 5.9-6.54 9.63-11.87 6.78z"></path>
  </symbol>
  <symbol xmlns="http://www.w3.org/2000/svg" viewBox="0 0 512 512" id="support">
    <path d="M256 56C145.72 56 56 145.72 56 256s89.72 200 200 200 200-89.72 200-200S366.28 56 256 56zm0 82a26 26 0 11-26 26 26 26 0 0126-26zm48 226h-88a16 16 0 010-32h28v-88h-16a16 16 0 010-32h32a16 16 0 0116 16v104h28a16 16 0 010 32z"></path>
  </symbol>
  <symbol xmlns="http://www.w3.org/2000/svg" viewBox="0 0 512 512" id="tool">
    <path d="M432 32H80a64.07 64.07 0 00-64 64v320a64.07 64.07 0 0064 64h352a64.07 64.07 0 0064-64V96a64.07 64.07 0 00-64-64zM96 256a16 16 0 01-10-28.49L150.39 176 86 124.49a16 16 0 1120-25l80 64a16 16 0 010 25l-80 64A16 16 0 0196 256zm160 0h-64a16 16 0 010-32h64a16 16 0 010 32z"></path>
  </symbol>
  <symbol xmlns="http://www.w3.org/2000/svg" viewBox="0 0 512 512" id="control">
    <path d="M448 256c0-106-86-192-192-192S64 150 64 256s86 192 192 192 192-86 192-192z" fill="none" stroke="currentColor" stroke-miterlimit="10" stroke-width="32"></path>
    <path d="M350.67 150.93l-117.2 46.88a64 64 0 00-35.66 35.66l-46.88 117.2a8 8 0 0010.4 10.4l117.2-46.88a64 64 0 0035.66-35.66l46.88-117.2a8 8 0 00-10.4-10.4zM256 280a24 24 0 1124-24 24 24 0 01-24 24z"></path>
  </symbol>
  <symbol xmlns="http://www.w3.org/2000/svg" viewBox="0 0 512 512" id="game">
    <path d="M440.88 129.37L288.16 40.62a64.14 64.14 0 00-64.33 0L71.12 129.37a4 4 0 000 6.9L254 243.85a4 4 0 004.06 0L440.9 136.27a4 4 0 00-.02-6.9zM256 152c-13.25 0-24-7.16-24-16s10.75-16 24-16 24 7.16 24 16-10.75 16-24 16zM238 270.81L54 163.48a4 4 0 00-6 3.46v173.92a48 48 0 0023.84 41.39L234 479.48a4 4 0 006-3.46V274.27a4 4 0 00-2-3.46zM96 368c-8.84 0-16-10.75-16-24s7.16-24 16-24 16 10.75 16 24-7.16 24-16 24zm96-32c-8.84 0-16-10.75-16-24s7.16-24 16-24 16 10.75 16 24-7.16 24-16 24zM458 163.51L274 271.56a4 4 0 00-2 3.45V476a4 4 0 006 3.46l162.15-97.23A48 48 0 00464 340.86V167a4 4 0 00-6-3.49zM320 424c-8.84 0-16-10.75-16-24s7.16-24 16-24 16 10.75 16 24-7.16 24-16 24zm0-88c-8.84 0-16-10.75-16-24s7.16-24 16-24 16 10.75 16 24-7.16 24-16 24zm96 32c-8.84 0-16-10.75-16-24s7.16-24 16-24 16 10.75 16 24-7.16 24-16 24zm0-88c-8.84 0-16-10.75-16-24s7.16-24 16-24 16 10.75 16 24-7.16 24-16 24z"></path>
  </symbol>
  <symbol xmlns="http://www.w3.org/2000/svg" viewBox="0 0 512 512" id="nft">
    <path d="M463.55 272.13H400v-48.2q0-4.32-.27-8.47c29.57-27.88 32.25-64.63 32.27-103 0-8.61-6.64-16-15.25-16.41A16 16 0 00400 112c0 28-1.86 48.15-9.9 63.84-19.22-41.15-65.78-63.91-134.1-63.91-39.8 0-74.19 9.13-99.43 26.39-14.9 10.19-26.2 22.91-33.7 37.72C114 160.65 112 141 112 112.46c0-8.61-6.6-16-15.2-16.44A16 16 0 0080 112c0 37.63 2.61 73.73 32.44 101.63q-.43 5.06-.44 10.3v48.2H48.45c-8.61 0-16 6.62-16.43 15.23a16 16 0 0016 16.77h64V320a143.32 143.32 0 0010.39 53.69C96.74 396.64 80.18 422 80 463.34c0 8.74 6.62 16.3 15.36 16.65A16 16 0 00112 464c0-27.66 9.1-44.71 26.17-61.32A144.37 144.37 0 00220 459.42a16 16 0 0020-15.49V192.45c0-8.61 6.62-16 15.23-16.43A16 16 0 01272 192v251.93a16 16 0 0020 15.49 144.4 144.4 0 0081.82-56.74c17 16.54 26.09 33.52 26.17 60.95a16.27 16.27 0 0015.1 16.37A16 16 0 00432 464c0-41.68-16.6-67.23-42.39-90.31A143.32 143.32 0 00400 320v-15.87h64a16 16 0 0016-16.77c-.42-8.61-7.84-15.23-16.45-15.23z"></path>
    <path d="M321.39 104l.32.09c13.57 3.8 25.07-10.55 18.2-22.85A95.86 95.86 0 00256.21 32h-.42a95.87 95.87 0 00-84.19 50.13c-6.84 12.58 5.14 27 18.84 22.86 19.71-6 41.79-9.06 65.56-9.06 24.09 0 46.09 2.72 65.39 8.07z"></path>
  </symbol>
  <symbol xmlns="http://www.w3.org/2000/svg" viewBox="0 0 512 512" id="price">
    <path d="M32 376a56 56 0 0056 56h336a56 56 0 0056-56V222H32zm66-76a30 30 0 0130-30h48a30 30 0 0130 30v20a30 30 0 01-30 30h-48a30 30 0 01-30-30zM424 80H88a56 56 0 00-56 56v26h448v-26a56 56 0 00-56-56z"></path>
  </symbol>
  <symbol xmlns="http://www.w3.org/2000/svg" viewBox="0 0 512 512" id="report">
    <path d="M480 128a64 64 0 00-64-64h-16V48.45c0-8.61-6.62-16-15.23-16.43A16 16 0 00368 48v16H144V48.45c0-8.61-6.62-16-15.23-16.43A16 16 0 00112 48v16H96a64 64 0 00-64 64v12a4 4 0 004 4h440a4 4 0 004-4zM32 416a64 64 0 0064 64h320a64 64 0 0064-64V180a4 4 0 00-4-4H36a4 4 0 00-4 4z"></path>
  </symbol>
  <symbol xmlns="http://www.w3.org/2000/svg" viewBox="0 0 512 512" id="search">
    <path d="M456.69 421.39L362.6 327.3a173.81 173.81 0 0034.84-104.58C397.44 126.38 319.06 48 222.72 48S48 126.38 48 222.72s78.38 174.72 174.72 174.72A173.81 173.81 0 00327.3 362.6l94.09 94.09a25 25 0 0035.3-35.3zM97.92 222.72a124.8 124.8 0 11124.8 124.8 124.95 124.95 0 01-124.8-124.8z"></path>
  </symbol>
  <symbol xmlns="http://www.w3.org/2000/svg" viewBox="0 0 512 512" id="sector">
    <path d="M432 176H320V64a48 48 0 00-48-48H80a48 48 0 00-48 48v416a16 16 0 0016 16h104a8 8 0 008-8v-71.55c0-8.61 6.62-16 15.23-16.43A16 16 0 01192 416v72a8 8 0 008 8h264a16 16 0 0016-16V224a48 48 0 00-48-48zM98.08 431.87a16 16 0 1113.79-13.79 16 16 0 01-13.79 13.79zm0-80a16 16 0 1113.79-13.79 16 16 0 01-13.79 13.79zm0-80a16 16 0 1113.79-13.79 16 16 0 01-13.79 13.79zm0-80a16 16 0 1113.79-13.79 16 16 0 01-13.79 13.79zm0-80a16 16 0 1113.79-13.79 16 16 0 01-13.79 13.79zm80 240a16 16 0 1113.79-13.79 16 16 0 01-13.79 13.79zm0-80a16 16 0 1113.79-13.79 16 16 0 01-13.79 13.79zm0-80a16 16 0 1113.79-13.79 16 16 0 01-13.79 13.79zm0-80a16 16 0 1113.79-13.79 16 16 0 01-13.79 13.79zm80 320a16 16 0 1113.79-13.79 16 16 0 01-13.79 13.79zm0-80a16 16 0 1113.79-13.79 16 16 0 01-13.79 13.79zm0-80a16 16 0 1113.79-13.79 16 16 0 01-13.79 13.79zm0-80a16 16 0 1113.79-13.79 16 16 0 01-13.79 13.79zm0-80a16 16 0 1113.79-13.79 16 16 0 01-13.79 13.79zM444 464H320V208h112a16 16 0 0116 16v236a4 4 0 01-4 4z"></path>
    <path d="M400 400a16 16 0 1016 16 16 16 0 00-16-16zM400 320a16 16 0 1016 16 16 16 0 00-16-16zM400 240a16 16 0 1016 16 16 16 0 00-16-16zM336 400a16 16 0 1016 16 16 16 0 00-16-16zM336 320a16 16 0 1016 16 16 16 0 00-16-16zM336 240a16 16 0 1016 16 16 16 0 00-16-16z"></path>
  </symbol>
  <symbol xmlns="http://www.w3.org/2000/svg" viewBox="0 0 512 512" id="start">
    <path d="M440.9 136.3a4 4 0 000-6.91L288.16 40.65a64.14 64.14 0 00-64.33 0L71.12 129.39a4 4 0 000 6.91L254 243.88a4 4 0 004.06 0zM54 163.51a4 4 0 00-6 3.49v173.89a48 48 0 0023.84 41.39L234 479.51a4 4 0 006-3.46V274.3a4 4 0 00-2-3.46zM272 275v201a4 4 0 006 3.46l162.15-97.23A48 48 0 00464 340.89V167a4 4 0 00-6-3.45l-184 108a4 4 0 00-2 3.45z"></path>
  </symbol>
  <symbol xmlns="http://www.w3.org/2000/svg" viewBox="0 0 512 512" id="cheat">
    <path d="M160 389a20.91 20.91 0 01-13.82-5.2l-128-112a21 21 0 010-31.6l128-112a21 21 0 0127.66 31.61L63.89 256l109.94 96.19A21 21 0 01160 389zM352 389a21 21 0 01-13.84-36.81L448.11 256l-109.94-96.19a21 21 0 0127.66-31.61l128 112a21 21 0 010 31.6l-128 112A20.89 20.89 0 01352 389zM208 437a21 21 0 01-20.12-27l96-320a21 21 0 1140.23 12l-96 320A21 21 0 01208 437z"></path>
  </symbol>
  <symbol xmlns="http://www.w3.org/2000/svg" viewBox="0 0 512 512" id="build">
    <path d="M469.54 120.52a16 16 0 00-25.54-4L382.56 178a16.12 16.12 0 01-22.63 0l-26.56-26.6a16 16 0 010-22.63l61.18-61.19a16 16 0 00-4.78-25.92C343.56 21 285.88 31.78 249.51 67.88c-30.9 30.68-40.11 78.62-25.25 131.53a15.89 15.89 0 01-4.49 16L53.29 367.46a64.17 64.17 0 1090.6 90.64l153.68-166.85a15.9 15.9 0 0115.77-4.57 179.3 179.3 0 0046.22 6.37c33.4 0 62.71-10.81 83.85-31.64 39.15-38.57 45.12-103.99 26.13-140.89zM99.48 447.15a32 32 0 1128.34-28.35 32 32 0 01-28.34 28.35z"></path>
  </symbol>
  <symbol xmlns="http://www.w3.org/2000/svg" viewBox="0 0 512 512" id="board">
    <path d="M408 103.28V16h-89.31l-8.9 8.78-42.15 78.48-13.25 8.74H104v119.85h82.68l7.36 8.71L104 408.72V496h89.3l8.91-8.79 42.14-78.48 13.26-8.73H408V280.13h-82.68l-7.36-8.75L408 103.28z"></path>
  </symbol>
  <symbol xmlns="http://www.w3.org/2000/svg" viewBox="0 0 512 512" id="exchange">
    <path d="M93.19 329.38l47.45-304.07c1.64-10.37 15.55-12.82 20.46-3.55l51 95.45zM432 400l-46.74-276.79a11 11 0 00-18.54-6L80 400l159.36 91.91a33.18 33.18 0 0031.91 0zM302.36 158.93l-36.54-69.54a10.86 10.86 0 00-19.36 0L85.83 375.74z"></path>
  </symbol>
  <symbol xmlns="http://www.w3.org/2000/svg" viewBox="0 0 512 512" id="financial">
    <path d="M112.31 268l40.36-68.69 34.65 59-67.54 115h135L289.31 432H16zm58.57-99.76l33.27-56.67L392.44 432h-66.68zM222.67 80h66.59L496 432h-66.68z" fill-rule="evenodd"></path>
  </symbol>
  <symbol xmlns="http://www.w3.org/2000/svg" viewBox="0 0 512 512" id="holding">
    <path d="M480 101.09L372.37 208.72l106.86 107.06-69.3 69.3-283.22-283.23L196 32.54l107.07 106.88L410.67 32zM32.55 196l69.3-69.31 283.22 283.24-69.3 69.3-107-106.87L101.08 480 32 410.67l107.42-107.61z"></path>
  </symbol>
  <symbol xmlns="http://www.w3.org/2000/svg" viewBox="0 0 512 512" id="industrial">
    <path d="M313.8 303.9L469 32H365L209.4 303.8a1.35 1.35 0 000 1.7l98.9 173.8c.4.7.8.7 1.6.7H413l-99.3-174.7a1.74 1.74 0 01.1-1.4zM221.9 216.2L163 113a2 2 0 00-2-1H65l58.9 104.4a1.13 1.13 0 01.1.8L43 352h96.8a1.54 1.54 0 001.6-.9l80.5-133.7a2.44 2.44 0 000-1.2z"></path>
  </symbol>
  <symbol xmlns="http://www.w3.org/2000/svg" viewBox="0 0 512 512" id="mining">
    <path d="M39.93 149.25l197.4 95.32c5.14 2.45 12 3.73 18.79 3.73s13.65-1.28 18.78-3.73l197.4-95.32c10.38-5 10.38-13.18 0-18.2L274.9 35.73c-5.13-2.45-12-3.73-18.78-3.73s-13.65 1.28-18.79 3.73l-197.4 95.32c-10.38 5.02-10.38 13.18 0 18.2z"></path>
    <path d="M472.3 246.9s-36.05-17.38-40.83-19.72-6.07-2.21-11.09.12-145.6 70.23-145.6 70.23a45.71 45.71 0 01-18.78 3.74c-6.77 0-13.65-1.29-18.78-3.74 0 0-136.85-66-143.27-69.18C87 225 85 225 78.67 228l-39 18.78c-10.38 5-10.38 13.19 0 18.2L237.1 360.3c5.13 2.45 12 3.73 18.78 3.73s13.65-1.28 18.79-3.73l197.4-95.3c10.61-4.92 10.61-13.08.23-18.1z"></path>
    <path d="M472.3 362.75s-36.05-17.38-40.83-19.75-6.07-2.21-11.09.12S274.9 413.5 274.9 413.5a45.74 45.74 0 01-18.78 3.73c-6.77 0-13.65-1.28-18.79-3.73 0 0-136.85-66-143.26-69.18-7-3.39-9-3.39-15.29-.35l-39 18.78c-10.39 5-10.39 13.18 0 18.2l197.4 95.32c5.13 2.56 12 3.73 18.78 3.73s13.65-1.28 18.78-3.73L472.18 381c10.5-5.07 10.5-13.23.12-18.25z"></path>
  </symbol>
  <symbol xmlns="http://www.w3.org/2000/svg" viewBox="0 0 512 512" id="property">
    <path d="M399.77 203c-.8-17.1-3.3-34.5-10.8-50.1a82.45 82.45 0 00-16.5-23.2 105.59 105.59 0 00-21.3-16.3c-17.1-10.2-37.5-17-84.4-31S192 64 192 64v358.3l79.9 25.7s.1-198.8.1-299.5v-3.8c0-9.3 7.5-16.8 16.1-16.8h.5c8.5 0 15.5 7.5 15.5 16.8V278c11 5.3 29.2 9.3 41.8 9.1a47.79 47.79 0 0024-5.7 49.11 49.11 0 0018.4-17.8 78.64 78.64 0 009.9-27.3c1.87-10.8 1.97-22.1 1.57-33.3zM86.67 357.8c27.4-9.8 89.3-29.5 89.3-29.5v-47.2s-76.5 24.8-111.3 37.1c-8.6 3.1-17.3 5.9-25.7 9.5-9.8 4.1-19.4 8.7-28.1 14.8a26.29 26.29 0 00-9.2 10.1 17.36 17.36 0 00-.5 13.6c2 5.1 5.8 9.3 10.1 12.6 7.8 5.9 17.1 9.5 26.4 12.2a262.42 262.42 0 0088.4 13.3c14.5-.2 36-1.9 50-4.4v-42s-11 2.5-41.3 12.5c-4.6 1.5-9.2 3.3-14 4.3a104.87 104.87 0 01-21.6 2.2c-6.5-.3-13.2-.7-19.3-3.1-2.2-1-4.6-2.2-5.5-4.6-.8-2 .3-4 1.7-5.4 2.8-2.9 6.8-4.5 10.6-6z"></path>
    <path d="M512 345.9c-.1-6-3.7-11.2-7.9-15-7.1-6.3-15.9-10.3-24.7-13.5-5.5-1.9-9.3-3.3-14.7-5-25.2-8.2-51.9-11.2-78.3-11.3-8 .3-23.1.5-31 1.4-21.9 2.5-67.3 15.4-67.3 15.4v48.8s67.5-21.6 96.5-31.8a94.43 94.43 0 0130.3-4.6c6.5.2 13.2.7 19.4 3.1 2.2.9 4.5 2.2 5.5 4.5.9 2.6-.9 5-2.9 6.5-4.7 3.8-10.7 5.3-16.2 7.4-41 14.5-132.7 44.7-132.7 44.7v47s117.2-39.6 170.8-58.8c8.9-3.3 17.9-6.1 26.4-10.4 7.9-4 15.8-8.6 21.8-15.3a19.74 19.74 0 005-13.1z"></path>
  </symbol>
  <symbol xmlns="http://www.w3.org/2000/svg" viewBox="0 0 512 512" id="service">
    <path d="M507 211.16c-1.42-1.19-14.25-10.94-41.79-10.94a132.55 132.55 0 00-21.61 1.9c-5.22-36.4-35.38-54-36.57-55l-7.36-4.28-4.75 6.9a101.65 101.65 0 00-13.06 30.45c-5 20.7-1.9 40.2 8.55 56.85-12.59 7.14-33 8.8-37.28 9H15.94A15.93 15.93 0 000 262.07a241.25 241.25 0 0014.75 86.83C26.39 379.35 43.72 402 66 415.74 91.22 431.2 132.3 440 178.6 440a344.23 344.23 0 0062.45-5.71 257.44 257.44 0 0081.69-29.73 223.55 223.55 0 0055.57-45.67c26.83-30.21 42.74-64 54.38-94h4.75c29.21 0 47.26-11.66 57.23-21.65a63.31 63.31 0 0015.2-22.36l2.14-6.18z"></path>
    <path d="M47.29 236.37H92.4a4 4 0 004-4v-40.48a4 4 0 00-4-4H47.29a4 4 0 00-4 4v40.44a4.16 4.16 0 004 4M109.5 236.37h45.12a4 4 0 004-4v-40.48a4 4 0 00-4-4H109.5a4 4 0 00-4 4v40.44a4.16 4.16 0 004 4M172.9 236.37H218a4 4 0 004-4v-40.48a4 4 0 00-4-4h-45.1a4 4 0 00-4 4v40.44a3.87 3.87 0 004 4M235.36 236.37h45.12a4 4 0 004-4v-40.48a4 4 0 00-4-4h-45.12a4 4 0 00-4 4v40.44a4 4 0 004 4M109.5 178.57h45.12a4.16 4.16 0 004-4v-40.48a4 4 0 00-4-4H109.5a4 4 0 00-4 4v40.44a4.34 4.34 0 004 4M172.9 178.57H218a4.16 4.16 0 004-4v-40.48a4 4 0 00-4-4h-45.1a4 4 0 00-4 4v40.44a4 4 0 004 4M235.36 178.57h45.12a4.16 4.16 0 004-4v-40.48a4.16 4.16 0 00-4-4h-45.12a4 4 0 00-4 4v40.44a4.16 4.16 0 004 4M235.36 120.53h45.12a4 4 0 004-4V76a4.16 4.16 0 00-4-4h-45.12a4 4 0 00-4 4v40.44a4.17 4.17 0 004 4M298.28 236.37h45.12a4 4 0 004-4v-40.48a4 4 0 00-4-4h-45.12a4 4 0 00-4 4v40.44a4.16 4.16 0 004 4"></path>
  </symbol>
  <symbol xmlns="http://www.w3.org/2000/svg" viewBox="0 0 512 512" id="cancel">
    <path d="M256 48C141.31 48 48 141.31 48 256s93.31 208 208 208 208-93.31 208-208S370.69 48 256 48zm75.31 260.69a16 16 0 11-22.62 22.62L256 278.63l-52.69 52.68a16 16 0 01-22.62-22.62L233.37 256l-52.68-52.69a16 16 0 0122.62-22.62L256 233.37l52.69-52.68a16 16 0 0122.62 22.62L278.63 256z"></path>
  </symbol>
  <symbol xmlns="http://www.w3.org/2000/svg" viewBox="0 0 512 512" id="submit">
    <path d="M256 48C141.31 48 48 141.31 48 256s93.31 208 208 208 208-93.31 208-208S370.69 48 256 48zm108.25 138.29l-134.4 160a16 16 0 01-12 5.71h-.27a16 16 0 01-11.89-5.3l-57.6-64a16 16 0 1123.78-21.4l45.29 50.32 122.59-145.91a16 16 0 0124.5 20.58z"></path>
  </symbol>
  <symbol xmlns="http://www.w3.org/2000/svg" viewBox="0 0 512 512" id="add">
    <path d="M459.94 53.25a16.06 16.06 0 00-23.22-.56L424.35 65a8 8 0 000 11.31l11.34 11.32a8 8 0 0011.34 0l12.06-12c6.1-6.09 6.67-16.01.85-22.38zM399.34 90L218.82 270.2a9 9 0 00-2.31 3.93L208.16 299a3.91 3.91 0 004.86 4.86l24.85-8.35a9 9 0 003.93-2.31L422 112.66a9 9 0 000-12.66l-9.95-10a9 9 0 00-12.71 0z"></path>
    <path d="M386.34 193.66L264.45 315.79A41.08 41.08 0 01247.58 326l-25.9 8.67a35.92 35.92 0 01-44.33-44.33l8.67-25.9a41.08 41.08 0 0110.19-16.87l122.13-121.91a8 8 0 00-5.65-13.66H104a56 56 0 00-56 56v240a56 56 0 0056 56h240a56 56 0 0056-56V199.31a8 8 0 00-13.66-5.65z"></path>
  </symbol>
  <symbol xmlns="http://www.w3.org/2000/svg" viewBox="0 0 512 512" id="update">
    <path d="M428 224H288a48 48 0 01-48-48V36a4 4 0 00-4-4h-92a64 64 0 00-64 64v320a64 64 0 0064 64h224a64 64 0 0064-64V228a4 4 0 00-4-4zm-92 160H176a16 16 0 010-32h160a16 16 0 010 32zm0-80H176a16 16 0 010-32h160a16 16 0 010 32z"></path>
    <path d="M419.22 188.59L275.41 44.78a2 2 0 00-3.41 1.41V176a16 16 0 0016 16h129.81a2 2 0 001.41-3.41z"></path>
  </symbol>
  <symbol xmlns="http://www.w3.org/2000/svg" viewBox="0 0 512 512" id="destroy">
    <path d="M296 64h-80a7.91 7.91 0 00-8 8v24h96V72a7.91 7.91 0 00-8-8z" fill="none"></path>
    <path d="M432 96h-96V72a40 40 0 00-40-40h-80a40 40 0 00-40 40v24H80a16 16 0 000 32h17l19 304.92c1.42 26.85 22 47.08 48 47.08h184c26.13 0 46.3-19.78 48-47l19-305h17a16 16 0 000-32zM192.57 416H192a16 16 0 01-16-15.43l-8-224a16 16 0 1132-1.14l8 224A16 16 0 01192.57 416zM272 400a16 16 0 01-32 0V176a16 16 0 0132 0zm32-304h-96V72a7.91 7.91 0 018-8h80a7.91 7.91 0 018 8zm32 304.57A16 16 0 01320 416h-.58A16 16 0 01304 399.43l8-224a16 16 0 1132 1.14z"></path>
  </symbol>
  <symbol xmlns="http://www.w3.org/2000/svg" viewBox="0 0 512 512" id="close">
    <path d="M256 48C141.31 48 48 141.31 48 256s93.31 208 208 208 208-93.31 208-208S370.69 48 256 48zm75.31 260.69a16 16 0 11-22.62 22.62L256 278.63l-52.69 52.68a16 16 0 01-22.62-22.62L233.37 256l-52.68-52.69a16 16 0 0122.62-22.62L256 233.37l52.69-52.68a16 16 0 0122.62 22.62L278.63 256z"></path>
  </symbol>
   <symbol xmlns="http://www.w3.org/2000/svg" viewBox="0 0 512 512" id="notifications">
    <path d="M440.08 341.31c-1.66-2-3.29-4-4.89-5.93-22-26.61-35.31-42.67-35.31-118 0-39-9.33-71-27.72-95-13.56-17.73-31.89-31.18-56.05-41.12a3 3 0 01-.82-.67C306.6 51.49 282.82 32 256 32s-50.59 19.49-59.28 48.56a3.13 3.13 0 01-.81.65c-56.38 23.21-83.78 67.74-83.78 136.14 0 75.36-13.29 91.42-35.31 118-1.6 1.93-3.23 3.89-4.89 5.93a35.16 35.16 0 00-4.65 37.62c6.17 13 19.32 21.07 34.33 21.07H410.5c14.94 0 28-8.06 34.19-21a35.17 35.17 0 00-4.61-37.66zM256 480a80.06 80.06 0 0070.44-42.13 4 4 0 00-3.54-5.87H189.12a4 4 0 00-3.55 5.87A80.06 80.06 0 00256 480z"></path>
  </symbol>
</svg>
