<svg width="0" height="0" class="hidden">
  <symbol xmlns="http://www.w3.org/2000/svg" viewBox="0 0 512 512" id="crypto">
    <title>Planet</title>
    <path d="M96.85 286.62a8 8 0 00-12.53 8.25C102.07 373.28 172.3 432 256 432a175.31 175.31 0 0052.41-8 8 8 0 00.79-15 1120 1120 0 01-109.48-55.61 1126.24 1126.24 0 01-102.87-66.77zM492.72 339.51c-4.19-5.58-9.11-11.44-14.7-17.53a15.83 15.83 0 00-26.56 5.13c0 .16-.11.31-.17.47a15.75 15.75 0 003.15 16.06c22.74 25 26.42 38.51 25.48 41.36-2 2.23-17.05 6.89-58.15-3.53q-8.83-2.24-19.32-5.46-6.76-2.08-13.79-4.49a176.76 176.76 0 0019.54-27.25c.17-.29.35-.58.52-.88A175.39 175.39 0 00432 256a178.87 178.87 0 00-1-19c-9.57-88.17-84.4-157-175-157a175.37 175.37 0 00-106.4 35.89 177.4 177.4 0 00-45.83 51.84c-.16.29-.34.58-.51.87a175.48 175.48 0 00-13.83 30.52q-5.59-4.87-10.79-9.67c-5.39-5-10.17-9.63-14.42-14-29.57-30.26-33.09-45.61-32.16-48.45 2-2.23 15.54-5.87 48.62 1.31A15.82 15.82 0 0096.22 123l.36-.44a15.74 15.74 0 00-8.67-25.43A237.38 237.38 0 0064.13 93c-30.72-3.53-50.83 2.52-59.78 18-3.24 5.58-6.35 15.09-2.72 28.6C7 159.66 26.14 184 53.23 209.5c8.63 8.13 18.06 16.37 28.12 24.64 7.32 6 15 12.06 22.9 18.08q7.91 6 16.15 12T137.1 276c25.41 17.61 52.26 34.52 78.59 49.69q14.34 8.26 28.64 16t28.37 14.81c21.9 11 43.35 20.92 63.86 29.43q13.19 5.48 25.81 10.16c11.89 4.42 23.37 8.31 34.31 11.59l1.1.33c25.73 7.66 47.42 11.69 64.48 12H464c21.64 0 36.3-6.38 43.58-19 9.09-15.62 4.08-36.32-14.86-61.5z"></path>
  </symbol>
  <symbol xmlns="http://www.w3.org/2000/svg" viewBox="0 0 512 512" id="login">
    <title>Person Add</title>
    <path d="M288 256c52.79 0 99.43-49.71 104-110.82 2.27-30.7-7.36-59.33-27.12-80.6C345.33 43.57 318 32 288 32c-30.24 0-57.59 11.5-77 32.38-19.63 21.11-29.2 49.8-27 80.78C188.49 206.28 235.12 256 288 256zM495.38 439.76c-8.44-46.82-34.79-86.15-76.19-113.75C382.42 301.5 335.83 288 288 288s-94.42 13.5-131.19 38c-41.4 27.6-67.75 66.93-76.19 113.75-1.93 10.73.69 21.34 7.19 29.11A30.94 30.94 0 00112 480h352a30.94 30.94 0 0024.21-11.13c6.48-7.77 9.1-18.38 7.17-29.11zM104 288v-40h40a16 16 0 000-32h-40v-40a16 16 0 00-32 0v40H32a16 16 0 000 32h40v40a16 16 0 0032 0z"></path>
  </symbol>
  <symbol xmlns="http://www.w3.org/2000/svg" viewBox="0 0 512 512" id="logo">
    <title>Infinite</title>
    <path d="M256 256s-48-96-126-96c-54.12 0-98 43-98 96s43.88 96 98 96c30 0 56.45-13.18 78-32M256 256s48 96 126 96c54.12 0 98-43 98-96s-43.88-96-98-96c-29.37 0-56.66 13.75-78 32" fill="none" stroke="currentColor" stroke-linecap="round" stroke-miterlimit="10" stroke-width="48"></path>
  </symbol>
  <symbol xmlns="http://www.w3.org/2000/svg" viewBox="0 0 512 512" id="profile">
    <title>Person</title>
    <path d="M332.64 64.58C313.18 43.57 286 32 256 32c-30.16 0-57.43 11.5-76.8 32.38-19.58 21.11-29.12 49.8-26.88 80.78C156.76 206.28 203.27 256 256 256s99.16-49.71 103.67-110.82c2.27-30.7-7.33-59.33-27.03-80.6zM432 480H80a31 31 0 01-24.2-11.13c-6.5-7.77-9.12-18.38-7.18-29.11C57.06 392.94 83.4 353.61 124.8 326c36.78-24.51 83.37-38 131.2-38s94.42 13.5 131.2 38c41.4 27.6 67.74 66.93 76.18 113.75 1.94 10.73-.68 21.34-7.18 29.11A31 31 0 01432 480z"></path>
  </symbol>
  <symbol xmlns="http://www.w3.org/2000/svg" viewBox="0 0 512 512" id="stock">
    <title>Color Filter</title>
    <path d="M253.72 202.53a4 4 0 004.56 0 151.88 151.88 0 01128.44-20.41 4 4 0 005.15-4C388.8 105.86 329 48 256 48s-132.8 57.86-135.87 130.15a4 4 0 005.15 4 151.88 151.88 0 01128.44 20.41zM405.31 212.56a152.53 152.53 0 01-83.08 108.23 4 4 0 00-2.28 3.69c0 1.17.05 2.34.05 3.52a151.58 151.58 0 01-47.15 109.94 4 4 0 00.64 6.31A135.24 135.24 0 00344 464c72.07 0 134.1-60.28 136-132.34a136.07 136.07 0 00-68.76-121.87 4 4 0 00-5.93 2.77z"></path>
    <path d="M390.57 203.67a4 4 0 00-2.69-4.4 135.84 135.84 0 00-114.4 12.49 4 4 0 00-.64 6.29 151.92 151.92 0 0144.47 81.4 4 4 0 005.94 2.72 136.29 136.29 0 0067.32-98.5zM192 328c0-1.18 0-2.35.05-3.52a4 4 0 00-2.28-3.69 152.53 152.53 0 01-83.08-108.23 4 4 0 00-5.88-2.77 136.07 136.07 0 00-68.76 121.87C34 403.72 96 464 168.05 464a135.24 135.24 0 0070.46-19.75 4 4 0 00.64-6.31A151.58 151.58 0 01192 328z"></path>
    <path d="M168 192a135.34 135.34 0 00-43.88 7.27 4 4 0 00-2.69 4.4 136.29 136.29 0 0067.32 98.5 4 4 0 005.94-2.72 151.92 151.92 0 0144.47-81.4 4 4 0 00-.64-6.29A135.18 135.18 0 00168 192zM256 336a151.44 151.44 0 01-42.72-6.12 4 4 0 00-5.15 4 135.69 135.69 0 0045.18 95.4 4 4 0 005.38 0 135.69 135.69 0 0045.18-95.4 4 4 0 00-5.15-4A151.44 151.44 0 01256 336zM302.57 308.33a135.94 135.94 0 00-43.87-81.58 4.06 4.06 0 00-5.4 0 135.94 135.94 0 00-43.87 81.58 4 4 0 002.69 4.4 136.06 136.06 0 0087.76 0 4 4 0 002.69-4.4z"></path>
  </symbol>
</svg>